# xmcd CD database file
#
# Track frame offsets:
#	150
#	2352
#	15968
#	31676
#	34271
#	36866
#	64612
#
# Disc length: 1316 seconds
#
# Revision: 0
# Processed by: cddbd v1.5.1PL0 Copyright (c) Steve Scherf et al.
# Submitted via: CD2WAV32(EN) R3.19
#
DISCID=3f052207
DTITLE=YUSEI&FUMIYA - PEGGYDAY
DYEAR=1900
DGENRE=
TTITLE0=HOKKAIRO BLD
TTITLE1=HOKKAIRO
TTITLE2=NATSU NO SHINKIRO(LIVE)
TTITLE3=HARMONY1
TTITLE4=HARMONY2
TTITLE5=NATSU NO SHINKIRO
TTITLE6=NIJI
EXTD=
EXTT0=
EXTT1=
EXTT2=
EXTT3=
EXTT4=
EXTT5=
EXTT6=
PLAYORDER=
